<?xml version="1.0" encoding="utf-8"?><svg xmlns="http://www.w3.org/2000/svg" xmlns:xlink="http://www.w3.org/1999/xlink" width="1931" height="457" preserveAspectRatio="xMidYMid" viewBox="0 0 1931 457" style="z-index:1;margin-right:-2px;display:block;animation-play-state:paused" ><g transform="translate(965.5,228.5) scale(1,1) translate(-965.5,-228.5)" style="transform:matrix(1, 0, 0, 1, 0, 0);animation-play-state:paused" ><linearGradient id="lg-0.45678469923953946" x1="0" x2="1" y1="0" y2="0" style="animation-play-state:paused" ><stop stop-color="#4176ea" offset="0" style="animation-play-state:paused" ></stop>

  
<stop stop-color="#2ec5b2" offset="1" style="animation-play-state:paused" ></stop></linearGradient>
<path d="M 0 0 L 0 85.2249 Q 241.375 103.423 482.75 86.0399 T 965.5 98.6464 T 1448.25 287.905 T 1931 215.482 L 1931 0 Z" fill="url(#lg-0.45678469923953946)" opacity="0.4" style="opacity:0.4;animation-play-state:paused" ></path>
<path d="M 0 0 L 0 -28.2493 Q 241.375 135.524 482.75 115.591 T 965.5 57.0441 T 1448.25 93.1666 T 1931 243.698 L 1931 0 Z" fill="url(#lg-0.45678469923953946)" opacity="0.4" style="opacity:0.4;animation-play-state:paused" ></path>
<path d="M 0 0 L 0 23.3114 Q 241.375 159.65 482.75 141.132 T 965.5 101.577 T 1448.25 216.422 T 1931 284.321 L 1931 0 Z" fill="url(#lg-0.45678469923953946)" opacity="0.4" style="opacity:0.4;animation-play-state:paused" ></path></g></svg>