<?xml version="1.0" encoding="utf-8"?><svg xmlns="http://www.w3.org/2000/svg" xmlns:xlink="http://www.w3.org/1999/xlink" width="1920" height="628" preserveAspectRatio="xMidYMid" viewBox="0 0 1920 628" style="z-index:1;margin-right:-2px;display:block;animation-play-state:paused;" ><g transform="translate(314,960) scale(1,1) translate(-960,-314)" style="transform:matrix(1, 0, 0, 1, 0, 0);animation-play-state:paused" ><linearGradient id="lg-0.9919353667657953" x1="0" x2="1" y1="0" y2="0" style="animation-play-state:paused" ><stop stop-color="#4176ea" offset="0" style="animation-play-state:paused" ></stop>

  
<stop stop-color="#00ffff" offset="1" style="animation-play-state:paused" ></stop></linearGradient>
<path d="M 0 0 L 0 461.151 Q 192 190.659 384 165.852 T 768 -46.9511 T 1152 -296.746 T 1536 -510.074 T 1920 -817.361 L 1920 0 Z" fill="url(#lg-0.9919353667657953)" opacity="0.4" style="opacity:0.4;animation-play-state:paused" ></path>
<path d="M 0 0 L 0 430.093 Q 192 258.826 384 237.21 T 768 -60.4826 T 1152 -259.39 T 1536 -502.772 T 1920 -750.601 L 1920 0 Z" fill="url(#lg-0.9919353667657953)" opacity="0.4" style="opacity:0.4;animation-play-state:paused" ></path>
<path d="M 0 0 L 0 427.243 Q 192 270.845 384 238.974 T 768 34.6999 T 1152 -220.288 T 1536 -482.695 T 1920 -660.03 L 1920 0 Z" fill="url(#lg-0.9919353667657953)" opacity="0.4" style="opacity:0.4;animation-play-state:paused" ></path></g></svg>